<svg width="41" height="42" viewBox="0 0 41 42" fill="none" xmlns="http://www.w3.org/2000/svg">
<path d="M23.9173 7.70768H10.2507C9.34449 7.70768 8.47545 8.06765 7.8347 8.7084C7.19395 9.34915 6.83398 10.2182 6.83398 11.1243V28.2077M6.83398 28.2077V31.6243C6.83398 32.5305 7.19395 33.3995 7.8347 34.0403C8.47545 34.681 9.34449 35.041 10.2507 35.041H30.7507C31.6568 35.041 32.5259 34.681 33.1666 34.0403C33.8074 33.3995 34.1673 32.5305 34.1673 31.6243V24.791M6.83398 28.2077L14.6684 20.3733C15.3091 19.7327 16.178 19.3729 17.084 19.3729C17.99 19.3729 18.8588 19.7327 19.4996 20.3733L23.9173 24.791M34.1673 17.9577V24.791M34.1673 24.791L31.4579 22.0816C30.8172 21.4411 29.9483 21.0812 29.0423 21.0812C28.1363 21.0812 27.2675 21.4411 26.6267 22.0816L23.9173 24.791M23.9173 24.791L27.334 28.2077M30.7507 7.70768H37.584M34.1673 4.29102V11.1243M23.9173 14.541H23.9344" stroke="#C2C2C2" stroke-width="2" stroke-linecap="round" stroke-linejoin="round"/>
</svg>
