<svg width="11" height="11" viewBox="0 0 11 11" fill="#FFE500" xmlns="http://www.w3.org/2000/svg"><path fill-rule="evenodd" clip-rule="evenodd" d="M5.5206 0C8.52809 0 11 2.47191 11 5.5206C11 8.52809 8.52809 11 5.5206 11C2.47191 11 0 8.52809 0 5.5206C0 2.47191 2.47191 0 5.5206 0ZM5.10861 1.23596H5.89139C6.13858 1.23596 6.30337 1.44195 6.30337 1.73034V6.88015C6.30337 7.16854 6.13858 7.37453 5.89139 7.37453H5.10861C4.86142 7.37453 4.65543 7.16854 4.65543 6.88015V1.73034C4.65543 1.44195 4.86142 1.23596 5.10861 1.23596ZM5.10861 7.82772H5.93258C6.13858 7.82772 6.34457 8.07491 6.34457 8.3221V9.31086C6.34457 9.55805 6.13858 9.76405 5.93258 9.76405H5.10861C4.90262 9.76405 4.69663 9.55805 4.69663 9.31086V8.3221C4.69663 8.07491 4.90262 7.82772 5.10861 7.82772Z"></path></svg>