<svg width="20" height="20" viewBox="0 0 20 20" fill="none" xmlns="http://www.w3.org/2000/svg">
<path d="M6.875 11.7916C7.28921 11.7916 7.625 11.4558 7.625 11.0416C7.625 10.6274 7.28921 10.2916 6.875 10.2916V11.7916ZM6.874 10.2916C6.45978 10.2916 6.124 10.6274 6.124 11.0416C6.124 11.4558 6.45978 11.7916 6.874 11.7916V10.2916ZM10.2256 11.7916C10.6398 11.7916 10.9756 11.4558 10.9756 11.0416C10.9756 10.6274 10.6398 10.2916 10.2256 10.2916V11.7916ZM10.2246 10.2916C9.81037 10.2916 9.47458 10.6274 9.47458 11.0416C9.47458 11.4558 9.81037 11.7916 10.2246 11.7916V10.2916ZM13.5306 11.7916C13.9448 11.7916 14.2806 11.4558 14.2806 11.0416C14.2806 10.6274 13.9448 10.2916 13.5306 10.2916V11.7916ZM13.5296 10.2916C13.1154 10.2916 12.7796 10.6274 12.7796 11.0416C12.7796 11.4558 13.1154 11.7916 13.5296 11.7916V10.2916ZM6.875 14.7874C7.28921 14.7874 7.625 14.4516 7.625 14.0374C7.625 13.6232 7.28921 13.2874 6.875 13.2874V14.7874ZM6.874 13.2874C6.45978 13.2874 6.124 13.6232 6.124 14.0374C6.124 14.4516 6.45978 14.7874 6.874 14.7874V13.2874ZM10.2256 14.7874C10.6398 14.7874 10.9756 14.4516 10.9756 14.0374C10.9756 13.6232 10.6398 13.2874 10.2256 13.2874V14.7874ZM10.2246 13.2874C9.81037 13.2874 9.47458 13.6232 9.47458 14.0374C9.47458 14.4516 9.81037 14.7874 10.2246 14.7874V13.2874ZM13.5306 14.7874C13.9448 14.7874 14.2806 14.4517 14.2806 14.0374C14.2806 13.6232 13.9448 13.2874 13.5306 13.2874V14.7874ZM13.5296 13.2874C13.1154 13.2874 12.7796 13.6232 12.7796 14.0374C12.7796 14.4517 13.1154 14.7874 13.5296 14.7874V13.2874ZM6.375 2.29163C6.375 1.87741 6.03922 1.54163 5.62501 1.54163C5.21079 1.54163 4.87501 1.87741 4.87501 2.29163H6.375ZM4.87501 5.20829C4.87501 5.62251 5.21079 5.95829 5.62501 5.95829C6.03922 5.95829 6.375 5.62251 6.375 5.20829H4.87501ZM3.12501 6.95829C2.71079 6.95829 2.37501 7.29408 2.37501 7.70829C2.37501 8.12251 2.71079 8.45829 3.12501 8.45829V6.95829ZM16.875 8.45829C17.2892 8.45829 17.625 8.12251 17.625 7.70829C17.625 7.29408 17.2892 6.95829 16.875 6.95829V8.45829ZM15.5417 2.29163C15.5417 1.87741 15.2059 1.54163 14.7917 1.54163C14.3775 1.54163 14.0417 1.87741 14.0417 2.29163H15.5417ZM14.0417 5.20829C14.0417 5.62251 14.3775 5.95829 14.7917 5.95829C15.2059 5.95829 15.5417 5.62251 15.5417 5.20829H14.0417ZM6.025 11.0416C6.025 11.5111 6.40557 11.8916 6.875 11.8916V10.3916C7.23397 10.3916 7.525 10.6826 7.525 11.0416H6.025ZM6.875 11.8916C7.34444 11.8916 7.725 11.5111 7.725 11.0416H6.225C6.225 10.6826 6.51602 10.3916 6.875 10.3916V11.8916ZM7.725 11.0416C7.725 10.5722 7.34445 10.1916 6.875 10.1916V11.6916C6.51601 11.6916 6.225 11.4006 6.225 11.0416H7.725ZM6.875 10.1916C6.40556 10.1916 6.025 10.5722 6.025 11.0416H7.525C7.525 11.4006 7.23398 11.6916 6.875 11.6916V10.1916ZM6.875 10.2916H6.874V11.7916H6.875V10.2916ZM9.37558 11.0416C9.37558 11.5111 9.75615 11.8916 10.2256 11.8916V10.3916C10.5846 10.3916 10.8756 10.6826 10.8756 11.0416H9.37558ZM10.2256 11.8916C10.695 11.8916 11.0756 11.5111 11.0756 11.0416H9.57558C9.57558 10.6826 9.8666 10.3916 10.2256 10.3916V11.8916ZM11.0756 11.0416C11.0756 10.5722 10.695 10.1916 10.2256 10.1916V11.6916C9.86659 11.6916 9.57558 11.4006 9.57558 11.0416H11.0756ZM10.2256 10.1916C9.75614 10.1916 9.37558 10.5722 9.37558 11.0416H10.8756C10.8756 11.4006 10.5846 11.6916 10.2256 11.6916V10.1916ZM10.2256 10.2916H10.2246V11.7916H10.2256V10.2916ZM12.6806 11.0416C12.6806 11.5111 13.0612 11.8916 13.5306 11.8916V10.3916C13.8896 10.3916 14.1806 10.6826 14.1806 11.0416H12.6806ZM13.5306 11.8916C14.0001 11.8916 14.3806 11.5111 14.3806 11.0416H12.8806C12.8806 10.6826 13.1716 10.3916 13.5306 10.3916V11.8916ZM14.3806 11.0416C14.3806 10.5722 14 10.1916 13.5306 10.1916V11.6916C13.1716 11.6916 12.8806 11.4006 12.8806 11.0416H14.3806ZM13.5306 10.1916C13.0612 10.1916 12.6806 10.5722 12.6806 11.0416H14.1806C14.1806 11.4006 13.8896 11.6916 13.5306 11.6916V10.1916ZM13.5306 10.2916H13.5296V11.7916H13.5306V10.2916ZM6.025 14.0374C6.025 14.5069 6.40557 14.8874 6.875 14.8874V13.3874C7.23397 13.3874 7.525 13.6784 7.525 14.0374H6.025ZM6.875 14.8874C7.34444 14.8874 7.725 14.5069 7.725 14.0374H6.225C6.225 13.6784 6.51602 13.3874 6.875 13.3874V14.8874ZM7.725 14.0374C7.725 13.568 7.34445 13.1874 6.875 13.1874V14.6874C6.51601 14.6874 6.225 14.3964 6.225 14.0374H7.725ZM6.875 13.1874C6.40556 13.1874 6.025 13.568 6.025 14.0374H7.525C7.525 14.3964 7.23398 14.6874 6.875 14.6874V13.1874ZM6.875 13.2874H6.874V14.7874H6.875V13.2874ZM9.37558 14.0374C9.37558 14.5069 9.75615 14.8874 10.2256 14.8874V13.3874C10.5846 13.3874 10.8756 13.6784 10.8756 14.0374H9.37558ZM10.2256 14.8874C10.695 14.8874 11.0756 14.5069 11.0756 14.0374H9.57558C9.57558 13.6784 9.8666 13.3874 10.2256 13.3874V14.8874ZM11.0756 14.0374C11.0756 13.568 10.695 13.1874 10.2256 13.1874V14.6874C9.86659 14.6874 9.57558 14.3964 9.57558 14.0374H11.0756ZM10.2256 13.1874C9.75614 13.1874 9.37558 13.568 9.37558 14.0374H10.8756C10.8756 14.3964 10.5846 14.6874 10.2256 14.6874V13.1874ZM10.2256 13.2874H10.2246V14.7874H10.2256V13.2874ZM12.6806 14.0374C12.6806 14.5069 13.0612 14.8874 13.5306 14.8874V13.3874C13.8896 13.3874 14.1806 13.6785 14.1806 14.0374H12.6806ZM13.5306 14.8874C14.0001 14.8874 14.3806 14.5069 14.3806 14.0374H12.8806C12.8806 13.6785 13.1716 13.3874 13.5306 13.3874V14.8874ZM14.3806 14.0374C14.3806 13.568 14 13.1874 13.5306 13.1874V14.6874C13.1716 14.6874 12.8806 14.3964 12.8806 14.0374H14.3806ZM13.5306 13.1874C13.0612 13.1874 12.6806 13.568 12.6806 14.0374H14.1806C14.1806 14.3964 13.8896 14.6874 13.5306 14.6874V13.1874ZM13.5306 13.2874H13.5296V14.7874H13.5306V13.2874ZM5.00001 4.70829H15V3.20829H5.00001V4.70829ZM15 4.70829C16.0816 4.70829 16.9583 5.58507 16.9583 6.66663H18.4583C18.4583 4.75664 16.91 3.20829 15 3.20829V4.70829ZM16.9583 6.66663V15H18.4583V6.66663H16.9583ZM16.9583 15C16.9583 16.0815 16.0816 16.9583 15 16.9583V18.4583C16.91 18.4583 18.4583 16.9099 18.4583 15H16.9583ZM15 16.9583H5.00001V18.4583H15V16.9583ZM5.00001 16.9583C3.91845 16.9583 3.04167 16.0815 3.04167 15H1.54167C1.54167 16.9099 3.09002 18.4583 5.00001 18.4583V16.9583ZM3.04167 15V6.66663H1.54167V15H3.04167ZM3.04167 6.66663C3.04167 5.58507 3.91845 4.70829 5.00001 4.70829V3.20829C3.09002 3.20829 1.54167 4.75664 1.54167 6.66663H3.04167ZM4.87501 2.29163V5.20829H6.375V2.29163H4.87501ZM3.12501 8.45829H16.875V6.95829H3.12501V8.45829ZM14.0417 2.29163V5.20829H15.5417V2.29163H14.0417Z" fill="#0A0A0A"/>
</svg>
