<svg width="19" height="18" viewBox="0 0 19 18" fill="none" xmlns="http://www.w3.org/2000/svg"><path d="M1.94755 17.142H17.0525C17.569 17.142 18.0643 16.9368 18.4296 16.5715C18.7948 16.2063 19 15.7109 19 15.1944V1.94755C19 1.43103 18.7948 0.93566 18.4296 0.570424C18.0643 0.205188 17.569 5.599e-07 17.0525 0H1.94755C1.43103 5.599e-07 0.935659 0.205188 0.570424 0.570424C0.205188 0.93566 5.599e-07 1.43103 0 1.94755V15.1944C5.599e-07 15.7109 0.205188 16.2063 0.570424 16.5715C0.935659 16.9368 1.43103 17.142 1.94755 17.142ZM1.94755 1.05557H17.0525C17.2889 1.05583 17.5157 1.14989 17.6829 1.31711C17.8501 1.48433 17.9442 1.71106 17.9444 1.94755V9.20432L14.3382 5.59803C14.2866 5.54649 14.2254 5.50561 14.1581 5.47771C14.0908 5.44982 14.0186 5.43546 13.9457 5.43546C13.8728 5.43546 13.8006 5.44982 13.7333 5.47771C13.666 5.50561 13.6048 5.54649 13.5533 5.59803L8.11287 11.0384L9.92849 12.854C9.9677 12.8932 9.9988 12.9398 10.02 12.991C10.0412 13.0422 10.0522 13.0971 10.0522 13.1526C10.0522 13.208 10.0412 13.2629 10.02 13.3141C9.9988 13.3654 9.9677 13.4119 9.9285 13.4511C9.8893 13.4903 9.84275 13.5214 9.79153 13.5426C9.74031 13.5638 9.6854 13.5748 9.62996 13.5748C9.57452 13.5748 9.51962 13.5638 9.46839 13.5426C9.41717 13.5214 9.37062 13.4903 9.33142 13.4511L5.29852 9.41823C5.24699 9.36669 5.1858 9.32581 5.11846 9.29792C5.05113 9.27003 4.97895 9.25567 4.90607 9.25567C4.83318 9.25567 4.76101 9.27003 4.69367 9.29792C4.62633 9.32581 4.56515 9.36669 4.51361 9.41823L1.05556 12.8763V1.94755C1.05582 1.71106 1.14989 1.48433 1.31711 1.31711C1.48433 1.14989 1.71106 1.05583 1.94755 1.05557ZM3.79997 4.49025C3.79997 4.2184 3.88058 3.95266 4.03161 3.72663C4.18264 3.5006 4.3973 3.32442 4.64845 3.22039C4.8996 3.11636 5.17596 3.08914 5.44259 3.14217C5.70921 3.1952 5.95412 3.3261 6.14635 3.51833C6.33857 3.71055 6.46948 3.95545 6.52252 4.22208C6.57555 4.4887 6.54834 4.76506 6.44431 5.01621C6.34028 5.26737 6.16411 5.48203 5.93808 5.63307C5.71205 5.7841 5.44631 5.86471 5.17446 5.86471C4.80993 5.86471 4.46033 5.7199 4.20256 5.46214C3.9448 5.20438 3.79998 4.85478 3.79997 4.49025Z" fill="#212A33"></path></svg>