<svg width="29" height="27" viewBox="0 0 29 27" fill="none" xmlns="http://www.w3.org/2000/svg">
<path d="M28.9544 14.9646C28.9221 14.9646 28.9221 14.9646 28.9544 14.9646L26.5657 13.6274V6.55896L26.8239 6.4316C26.8885 6.39976 26.8885 6.33608 26.8885 6.30424V4.87146V4.83962C26.8885 4.83962 26.8885 4.83962 26.8885 4.80778C26.8885 4.80778 26.8885 4.80778 26.8885 4.77594L26.8562 4.7441L18.4636 0.0318397C18.4314 0.0318397 18.3991 0 18.3668 0L9.74829 0.636792C9.71601 0.636792 9.68373 0.636793 9.65145 0.668632L1.22661 9.71108C1.22661 9.71108 1.22661 9.71108 1.22661 9.74292V9.77476V9.8066C1.22661 9.8066 1.22661 9.8066 1.22661 9.83844V11.3031C1.22661 11.3667 1.25888 11.3986 1.32344 11.4304L1.51712 11.5578V19.0719L1.19433 19.263C1.12977 19.2948 1.12977 19.3585 1.12977 19.3903V20.0271L0.0968374 20.6002L0.0645583 20.6321C0.0645583 20.6321 0.0645582 20.6321 0.0322791 20.6639C0.0322791 20.6958 0.0322791 20.6958 0 20.7276C0 20.7276 0 20.7276 0 20.7594V21.4917C0 21.5554 0.0322792 21.5873 0.0645583 21.6191L9.55461 26.9682C9.58689 26.9682 9.61917 27 9.61917 27C9.61917 27 9.68373 27 9.68373 26.9682L28.9221 15.9835C28.9866 15.9517 28.9866 15.888 28.9866 15.8561V15.1238C29.0189 15.0283 28.9866 14.9965 28.9544 14.9646ZM26.5657 6.20873L9.90968 15.7288V14.6462L26.5657 5.12618V6.20873ZM26.3075 14.8691L10.0711 24.1663L8.61852 23.3384L1.5494 19.3903L1.61396 19.3585L2.71144 19.9634C2.74372 19.9634 2.776 19.9953 2.776 19.9953C2.80828 19.9953 2.84056 19.9953 2.84056 19.9634L3.26019 19.7087V20.1863C3.26019 20.25 3.29247 20.2818 3.35703 20.3137L4.48679 20.9505C4.51907 20.9505 4.55135 20.9823 4.55135 20.9823C4.58363 20.9823 4.61591 20.9823 4.61591 20.9505L5.03554 20.6958V21.1415C5.03554 21.2052 5.06782 21.237 5.13238 21.2689L6.26215 21.9057C6.29442 21.9057 6.3267 21.9375 6.3267 21.9375C6.35898 21.9375 6.39126 21.9375 6.39126 21.9057L6.81089 21.6509V22.1604C6.81089 22.2241 6.84317 22.2559 6.90773 22.2877L8.0375 22.8927H8.06977C8.06977 22.8927 8.06977 22.8927 8.10205 22.8927C8.13433 22.8927 8.16661 22.8927 8.16661 22.8608L8.58624 22.638V23.1474C8.58624 23.2111 8.61852 23.2429 8.68308 23.2748L9.81285 23.9116C9.84513 23.9116 9.8774 23.9434 9.8774 23.9434C9.90968 23.9434 9.94196 23.9434 9.94196 23.9116L11.4268 23.0837C11.4914 23.0519 11.5236 22.9882 11.5236 22.9564V21.4281C11.5236 21.4917 11.5559 21.5236 11.6205 21.5554L12.7502 22.1922C12.7825 22.1922 12.8148 22.2241 12.8148 22.2241C12.8471 22.2241 12.8794 22.2241 12.8794 22.1922L14.3642 21.3644C14.4288 21.3325 14.461 21.2689 14.461 21.237V19.7406C14.461 19.8042 14.4933 19.8361 14.5579 19.8679L15.6876 20.5047C15.7199 20.5047 15.7522 20.5366 15.7522 20.5366C15.7845 20.5366 15.8168 20.5366 15.8168 20.5047L17.3016 19.6769C17.3662 19.645 17.3984 19.5814 17.3984 19.5495V18.0531C17.3984 18.1167 17.4307 18.1486 17.4953 18.1804L18.5928 18.7854L18.625 18.8172C18.6573 18.8172 18.6896 18.8491 18.6896 18.8491C18.7219 18.8491 18.7542 18.8491 18.7542 18.8172L20.239 17.9894C20.3036 17.9575 20.3358 17.8939 20.3358 17.862V16.3656C20.3358 16.4292 20.3681 16.4611 20.4327 16.4929L21.5624 17.1297C21.5947 17.1297 21.627 17.1616 21.627 17.1616C21.6593 17.1616 21.6916 17.1616 21.6916 17.1297L23.1764 16.3019C23.241 16.27 23.2732 16.2064 23.2732 16.1745V14.6781C23.2732 14.7417 23.3055 14.7736 23.3701 14.8054L24.4998 15.4422C24.5321 15.4422 24.5644 15.4741 24.5644 15.4741C24.5967 15.4741 24.629 15.4741 24.629 15.4422L26.1138 14.6144C26.1461 14.6144 26.1461 14.5825 26.1783 14.5507C26.1783 14.5507 26.1783 14.5507 26.1783 14.5189V14.487L26.3397 14.5825L26.3075 14.8691ZM26.8885 14.9328V15.283L10.2325 24.8031V24.7075V24.4528L26.8885 14.9328ZM2.64689 12.1946V19.5495L1.80763 19.1038V11.717L2.64689 12.1946ZM2.96968 19.5177V12.3856L3.03424 12.4175L3.32475 12.5767V19.3267L2.96968 19.5177ZM3.64754 20.0908V19.4222V12.7358L3.74438 12.7677L4.48679 13.1816V17.4163V20.5047L3.64754 20.0908ZM4.77731 20.5366V17.4481V13.4045L5.13238 13.5955V20.3455L4.77731 20.5366ZM5.45517 21.0778V20.441V13.7547L5.64884 13.8821L6.26215 14.2323V21.5236L5.45517 21.0778ZM6.58494 21.5236V14.4233L6.71405 14.487L6.94001 14.6144V21.3325L6.58494 21.5236ZM7.2628 22.0967V21.4281V14.7736L8.06977 15.2193V22.5106L7.2628 22.0967ZM8.42484 22.5425V15.4422L8.77991 15.6333V22.3514L8.42484 22.5425ZM9.10271 23.1474V22.4469V15.8243L9.68373 16.1427C9.71601 16.1427 9.74829 16.1745 9.74829 16.1745C9.78057 16.1745 9.81285 16.1745 9.81285 16.1427L9.90968 16.079V23.5932L9.10271 23.1474ZM10.2325 23.5932V15.9198L11.3945 15.2512V22.9245L10.2325 23.5932ZM12.0401 21.4281V14.8373L12.5566 14.5507L12.8471 14.3915V21.8738L12.0401 21.4281ZM13.2022 21.8738V14.2005L14.3642 13.5637V21.237L13.2022 21.8738ZM15.0098 19.7406V13.1498L15.1389 13.0861L15.849 12.6722V20.1545L15.0098 19.7406ZM16.1718 20.1863V12.513L17.3339 11.8443V19.5177L16.1718 20.1863ZM17.9795 18.0212V11.4623L18.8187 10.9847V18.467L17.9795 18.0212ZM19.1415 18.4988V10.8255L20.3036 10.1568V10.3797V10.921V17.8302L19.1415 18.4988ZM20.9491 16.3337V11.112V10.5708V9.77476L21.5624 9.42453L21.7884 9.29717V16.7795L20.9491 16.3337ZM22.1112 16.7795V9.10613L23.2732 8.4375V12.0354V12.5767V16.1108L22.1112 16.7795ZM23.9188 14.6462V12.7995V12.2583V8.08726L24.7581 7.60967V15.092L23.9188 14.6462ZM25.0809 15.092V7.41863L26.2429 6.75V13.691V14.2323V14.3915L25.0809 15.092ZM10.5875 13.8821L18.27 5.69929L26.0492 5.09434L10.5875 13.8821ZM18.27 0.286557L26.1783 4.71226L18.2054 5.34906L12.5566 2.19693L10.297 0.923349L18.27 0.286557ZM9.81285 1.01887L17.9472 5.57193L9.71601 14.3597L1.58168 9.77476L9.81285 1.01887ZM1.48484 11.1757V10.0932L9.58689 14.6462V15.7288L3.5507 12.3538L2.74372 11.908V11.6215C2.74372 11.5259 2.67917 11.4623 2.58233 11.4623C2.48549 11.4623 2.42093 11.5259 2.42093 11.6215V11.717L2.09814 11.5259V11.0483C2.09814 10.9528 2.03358 10.8892 1.93675 10.8892C1.83991 10.8892 1.77535 10.9528 1.77535 11.0483V11.3667L1.48484 11.1757ZM1.388 19.645L9.90968 24.421V24.8031L1.388 20.0271V19.645ZM9.45778 26.5224L0.290512 21.3644V21.0142L9.49006 26.1722L9.45778 26.5224ZM9.61917 25.8856L8.81219 25.4399L0.451907 20.7276L1.25888 20.2818L10.0065 25.1851C10.0388 25.1851 10.0711 25.217 10.0711 25.217C10.1034 25.217 10.1356 25.217 10.1356 25.1851L27.1144 15.5059C27.179 15.4741 27.179 15.4104 27.179 15.3785V14.6462C27.179 14.6144 27.179 14.5825 27.1467 14.5825C27.1467 14.5825 27.1467 14.5825 27.1467 14.5507L27.1144 14.5189L26.5334 14.2005V14.0094L28.5024 15.1238L9.61917 25.8856ZM28.6961 15.7288L9.78057 26.5224V26.4269V26.1722L28.6961 15.3785V15.7288Z" fill="#424242"/>
</svg>
